<svg width="99" height="25" viewBox="0 0 99 25" fill="none" xmlns="http://www.w3.org/2000/svg">
<path d="M14.87 18.5H10.937L4.359 8.541V18.5H0.426V2.354H4.359L10.937 12.359V2.354H14.87V18.5ZM16.9389 12.06C16.9389 10.7413 17.1843 9.58367 17.6749 8.587C18.1809 7.59033 18.8633 6.82367 19.7219 6.287C20.5806 5.75033 21.5389 5.482 22.5969 5.482C23.5016 5.482 24.2913 5.666 24.9659 6.034C25.6559 6.402 26.1849 6.885 26.5529 7.483V5.666H30.4859V18.5H26.5529V16.683C26.1696 17.281 25.6329 17.764 24.9429 18.132C24.2683 18.5 23.4786 18.684 22.5739 18.684C21.5313 18.684 20.5806 18.4157 19.7219 17.879C18.8633 17.327 18.1809 16.5527 17.6749 15.556C17.1843 14.544 16.9389 13.3787 16.9389 12.06ZM26.5529 12.083C26.5529 11.1017 26.2769 10.3273 25.7249 9.76C25.1883 9.19267 24.5289 8.909 23.7469 8.909C22.9649 8.909 22.2979 9.19267 21.7459 9.76C21.2093 10.312 20.9409 11.0787 20.9409 12.06C20.9409 13.0413 21.2093 13.8233 21.7459 14.406C22.2979 14.9733 22.9649 15.257 23.7469 15.257C24.5289 15.257 25.1883 14.9733 25.7249 14.406C26.2769 13.8387 26.5529 13.0643 26.5529 12.083ZM32.5493 12.06C32.5493 10.7413 32.7946 9.58367 33.2853 8.587C33.7913 7.59033 34.4736 6.82367 35.3323 6.287C36.1909 5.75033 37.1493 5.482 38.2073 5.482C39.0506 5.482 39.8173 5.65833 40.5073 6.011C41.2126 6.36367 41.7646 6.839 42.1633 7.437V1.48H46.0963V18.5H42.1633V16.66C41.7953 17.2733 41.2663 17.764 40.5763 18.132C39.9016 18.5 39.1119 18.684 38.2073 18.684C37.1493 18.684 36.1909 18.4157 35.3323 17.879C34.4736 17.327 33.7913 16.5527 33.2853 15.556C32.7946 14.544 32.5493 13.3787 32.5493 12.06ZM42.1633 12.083C42.1633 11.1017 41.8873 10.3273 41.3353 9.76C40.7986 9.19267 40.1393 8.909 39.3573 8.909C38.5753 8.909 37.9083 9.19267 37.3563 9.76C36.8196 10.312 36.5513 11.0787 36.5513 12.06C36.5513 13.0413 36.8196 13.8233 37.3563 14.406C37.9083 14.9733 38.5753 15.257 39.3573 15.257C40.1393 15.257 40.7986 14.9733 41.3353 14.406C41.8873 13.8387 42.1633 13.0643 42.1633 12.083ZM50.9196 4.332C50.2296 4.332 49.6623 4.13267 49.2176 3.734C48.7883 3.32 48.5736 2.814 48.5736 2.216C48.5736 1.60267 48.7883 1.09667 49.2176 0.697999C49.6623 0.283999 50.2296 0.0769987 50.9196 0.0769987C51.5943 0.0769987 52.1463 0.283999 52.5756 0.697999C53.0203 1.09667 53.2426 1.60267 53.2426 2.216C53.2426 2.814 53.0203 3.32 52.5756 3.734C52.1463 4.13267 51.5943 4.332 50.9196 4.332ZM52.8746 5.666V18.5H48.9416V5.666H52.8746ZM68.0298 7.552C68.0298 8.48733 67.8152 9.346 67.3858 10.128C66.9565 10.8947 66.2972 11.5157 65.4078 11.991C64.5185 12.4663 63.4145 12.704 62.0958 12.704H59.6578V18.5H55.7248V2.354H62.0958C63.3838 2.354 64.4725 2.57633 65.3618 3.021C66.2512 3.46567 66.9182 4.079 67.3628 4.861C67.8075 5.643 68.0298 6.54 68.0298 7.552ZM61.7968 9.576C62.5482 9.576 63.1078 9.39967 63.4758 9.047C63.8438 8.69433 64.0278 8.196 64.0278 7.552C64.0278 6.908 63.8438 6.40967 63.4758 6.057C63.1078 5.70433 62.5482 5.528 61.7968 5.528H59.6578V9.576H61.7968ZM69.2954 12.06C69.2954 10.7413 69.5407 9.58367 70.0314 8.587C70.5374 7.59033 71.2197 6.82367 72.0784 6.287C72.937 5.75033 73.8954 5.482 74.9534 5.482C75.858 5.482 76.6477 5.666 77.3224 6.034C78.0124 6.402 78.5414 6.885 78.9094 7.483V5.666H82.8424V18.5H78.9094V16.683C78.526 17.281 77.9894 17.764 77.2994 18.132C76.6247 18.5 75.835 18.684 74.9304 18.684C73.8877 18.684 72.937 18.4157 72.0784 17.879C71.2197 17.327 70.5374 16.5527 70.0314 15.556C69.5407 14.544 69.2954 13.3787 69.2954 12.06ZM78.9094 12.083C78.9094 11.1017 78.6334 10.3273 78.0814 9.76C77.5447 9.19267 76.8854 8.909 76.1034 8.909C75.3214 8.909 74.6544 9.19267 74.1024 9.76C73.5657 10.312 73.2974 11.0787 73.2974 12.06C73.2974 13.0413 73.5657 13.8233 74.1024 14.406C74.6544 14.9733 75.3214 15.257 76.1034 15.257C76.8854 15.257 77.5447 14.9733 78.0814 14.406C78.6334 13.8387 78.9094 13.0643 78.9094 12.083ZM98.7977 5.666L90.7477 24.595H86.5157L89.4597 18.063L84.2387 5.666H88.6317L91.5987 13.693L94.5427 5.666H98.7977Z" fill="white"/>
</svg>
