<svg width="117" height="30" viewBox="0 0 117 30" fill="none" xmlns="http://www.w3.org/2000/svg">
<path d="M17.63 22.0952H13.013L5.291 10.4042V22.0952H0.674V3.14121H5.291L13.013 14.8862V3.14121H17.63V22.0952ZM20.0587 14.5352C20.0587 12.9872 20.3467 11.6282 20.9227 10.4582C21.5167 9.28821 22.3177 8.38821 23.3257 7.75821C24.3337 7.12821 25.4587 6.81321 26.7007 6.81321C27.7627 6.81321 28.6897 7.02921 29.4817 7.46121C30.2917 7.89321 30.9127 8.46021 31.3447 9.16221V7.02921H35.9617V22.0952H31.3447V19.9622C30.8947 20.6642 30.2647 21.2312 29.4547 21.6632C28.6627 22.0952 27.7357 22.3112 26.6737 22.3112C25.4497 22.3112 24.3337 21.9962 23.3257 21.3662C22.3177 20.7182 21.5167 19.8092 20.9227 18.6392C20.3467 17.4512 20.0587 16.0832 20.0587 14.5352ZM31.3447 14.5622C31.3447 13.4102 31.0207 12.5012 30.3727 11.8352C29.7427 11.1692 28.9687 10.8362 28.0507 10.8362C27.1327 10.8362 26.3497 11.1692 25.7017 11.8352C25.0717 12.4832 24.7567 13.3832 24.7567 14.5352C24.7567 15.6872 25.0717 16.6052 25.7017 17.2892C26.3497 17.9552 27.1327 18.2882 28.0507 18.2882C28.9687 18.2882 29.7427 17.9552 30.3727 17.2892C31.0207 16.6232 31.3447 15.7142 31.3447 14.5622ZM38.3839 14.5352C38.3839 12.9872 38.6719 11.6282 39.2479 10.4582C39.8419 9.28821 40.6429 8.38821 41.6509 7.75821C42.6589 7.12821 43.7839 6.81321 45.0259 6.81321C46.0159 6.81321 46.9159 7.02021 47.7259 7.43421C48.5539 7.84821 49.2019 8.40621 49.6699 9.10821V2.11521H54.2869V22.0952H49.6699V19.9352C49.2379 20.6552 48.6169 21.2312 47.8069 21.6632C47.0149 22.0952 46.0879 22.3112 45.0259 22.3112C43.7839 22.3112 42.6589 21.9962 41.6509 21.3662C40.6429 20.7182 39.8419 19.8092 39.2479 18.6392C38.6719 17.4512 38.3839 16.0832 38.3839 14.5352ZM49.6699 14.5622C49.6699 13.4102 49.3459 12.5012 48.6979 11.8352C48.0679 11.1692 47.2939 10.8362 46.3759 10.8362C45.4579 10.8362 44.6749 11.1692 44.0269 11.8352C43.3969 12.4832 43.0819 13.3832 43.0819 14.5352C43.0819 15.6872 43.3969 16.6052 44.0269 17.2892C44.6749 17.9552 45.4579 18.2882 46.3759 18.2882C47.2939 18.2882 48.0679 17.9552 48.6979 17.2892C49.3459 16.6232 49.6699 15.7142 49.6699 14.5622ZM59.9491 5.46321C59.1391 5.46321 58.4731 5.22921 57.9511 4.76121C57.4471 4.27521 57.1951 3.68121 57.1951 2.97921C57.1951 2.25921 57.4471 1.66521 57.9511 1.19721C58.4731 0.711213 59.1391 0.468213 59.9491 0.468213C60.7411 0.468213 61.3891 0.711213 61.8931 1.19721C62.4151 1.66521 62.6761 2.25921 62.6761 2.97921C62.6761 3.68121 62.4151 4.27521 61.8931 4.76121C61.3891 5.22921 60.7411 5.46321 59.9491 5.46321ZM62.2441 7.02921V22.0952H57.6271V7.02921H62.2441ZM80.035 9.24321C80.035 10.3412 79.783 11.3492 79.279 12.2672C78.775 13.1672 78.001 13.8962 76.957 14.4542C75.913 15.0122 74.617 15.2912 73.069 15.2912H70.207V22.0952H65.59V3.14121H73.069C74.581 3.14121 75.859 3.40221 76.903 3.92421C77.947 4.44621 78.73 5.16621 79.252 6.08421C79.774 7.00221 80.035 8.05521 80.035 9.24321ZM72.718 11.6192C73.6 11.6192 74.257 11.4122 74.689 10.9982C75.121 10.5842 75.337 9.99921 75.337 9.24321C75.337 8.48721 75.121 7.90221 74.689 7.48821C74.257 7.07421 73.6 6.86721 72.718 6.86721H70.207V11.6192H72.718ZM81.5206 14.5352C81.5206 12.9872 81.8086 11.6282 82.3846 10.4582C82.9786 9.28821 83.7796 8.38821 84.7876 7.75821C85.7956 7.12821 86.9206 6.81321 88.1626 6.81321C89.2246 6.81321 90.1516 7.02921 90.9436 7.46121C91.7536 7.89321 92.3746 8.46021 92.8066 9.16221V7.02921H97.4236V22.0952H92.8066V19.9622C92.3566 20.6642 91.7266 21.2312 90.9166 21.6632C90.1246 22.0952 89.1976 22.3112 88.1356 22.3112C86.9116 22.3112 85.7956 21.9962 84.7876 21.3662C83.7796 20.7182 82.9786 19.8092 82.3846 18.6392C81.8086 17.4512 81.5206 16.0832 81.5206 14.5352ZM92.8066 14.5622C92.8066 13.4102 92.4826 12.5012 91.8346 11.8352C91.2046 11.1692 90.4306 10.8362 89.5126 10.8362C88.5946 10.8362 87.8116 11.1692 87.1636 11.8352C86.5336 12.4832 86.2186 13.3832 86.2186 14.5352C86.2186 15.6872 86.5336 16.6052 87.1636 17.2892C87.8116 17.9552 88.5946 18.2882 89.5126 18.2882C90.4306 18.2882 91.2046 17.9552 91.8346 17.2892C92.4826 16.6232 92.8066 15.7142 92.8066 14.5622ZM116.154 7.02921L106.704 29.2502H101.736L105.192 21.5822L99.0628 7.02921H104.22L107.703 16.4522L111.159 7.02921H116.154Z" fill="white"/>
</svg>
