<svg width="117" height="30" fill="none" xmlns="http://www.w3.org/2000/svg"><path d="M17.63 22.095h-4.617l-7.722-11.69v11.69H.674V3.141h4.617l7.722 11.745V3.141h4.617v18.954zm2.429-7.56c0-1.548.288-2.907.864-4.077.594-1.17 1.395-2.07 2.403-2.7 1.008-.63 2.133-.945 3.375-.945 1.062 0 1.989.216 2.78.648.81.432 1.432 1 1.864 1.701V7.03h4.617v15.066h-4.617v-2.133c-.45.702-1.08 1.27-1.89 1.701-.792.432-1.72.648-2.781.648a6.19 6.19 0 01-3.348-.945c-1.008-.648-1.81-1.557-2.403-2.727-.576-1.188-.864-2.556-.864-4.104zm11.286.027c0-1.152-.324-2.06-.972-2.727a3.071 3.071 0 00-2.322-.999c-.918 0-1.701.333-2.35 1-.63.647-.944 1.547-.944 2.7 0 1.151.315 2.07.945 2.753.648.666 1.43 1 2.349 1 .918 0 1.692-.334 2.322-1 .648-.666.972-1.575.972-2.727zm7.039-.027c0-1.548.288-2.907.864-4.077.594-1.17 1.395-2.07 2.403-2.7 1.008-.63 2.133-.945 3.375-.945.99 0 1.89.207 2.7.621.828.414 1.476.972 1.944 1.674V2.115h4.617v19.98H49.67v-2.16c-.432.72-1.053 1.296-1.863 1.728-.792.432-1.72.648-2.781.648-1.242 0-2.367-.315-3.375-.945-1.008-.648-1.81-1.557-2.403-2.727-.576-1.188-.864-2.556-.864-4.104zm11.286.027c0-1.152-.324-2.06-.972-2.727a3.071 3.071 0 00-2.322-.999c-.918 0-1.701.333-2.35 1-.63.647-.944 1.547-.944 2.7 0 1.151.315 2.07.945 2.753.648.666 1.43 1 2.349 1 .918 0 1.692-.334 2.322-1 .648-.666.972-1.575.972-2.727zm10.28-9.099c-.81 0-1.477-.234-1.999-.702a2.38 2.38 0 01-.756-1.782c0-.72.252-1.314.756-1.782.522-.486 1.188-.729 1.998-.729.792 0 1.44.243 1.944.73.522.467.783 1.061.783 1.781 0 .702-.26 1.296-.783 1.782-.504.468-1.152.702-1.944.702zm2.294 1.566v15.066h-4.617V7.03h4.617zm17.791 2.214a6.18 6.18 0 01-.756 3.024c-.504.9-1.278 1.63-2.322 2.187-1.044.558-2.34.837-3.888.837h-2.862v6.804H65.59V3.141h7.479c1.512 0 2.79.261 3.834.783s1.827 1.242 2.349 2.16c.522.918.783 1.971.783 3.16zm-7.317 2.376c.882 0 1.539-.207 1.971-.62.432-.415.648-1 .648-1.756s-.216-1.34-.648-1.755c-.432-.414-1.089-.62-1.971-.62h-2.511v4.751h2.511zm8.803 2.916c0-1.548.288-2.907.864-4.077.594-1.17 1.395-2.07 2.403-2.7 1.008-.63 2.133-.945 3.375-.945 1.062 0 1.989.216 2.78.648.81.432 1.432 1 1.864 1.701V7.03h4.617v15.066h-4.617v-2.133c-.45.702-1.08 1.27-1.89 1.701-.792.432-1.72.648-2.781.648a6.19 6.19 0 01-3.348-.945c-1.008-.648-1.81-1.557-2.403-2.727-.576-1.188-.864-2.556-.864-4.104zm11.286.027c0-1.152-.324-2.06-.972-2.727a3.071 3.071 0 00-2.322-.999c-.918 0-1.701.333-2.35 1-.63.647-.944 1.547-.944 2.7 0 1.151.315 2.07.945 2.753.648.666 1.43 1 2.349 1 .918 0 1.692-.334 2.322-1 .648-.666.972-1.575.972-2.727zm23.347-7.533l-9.45 22.221h-4.968l3.456-7.668-6.13-14.553h5.158l3.483 9.423 3.456-9.423h4.995z" fill="#fff"/></svg>