<svg width="99" height="25" fill="none" xmlns="http://www.w3.org/2000/svg"><path d="M14.87 18.5h-3.933L4.359 8.541V18.5H.426V2.354h3.933l6.578 10.005V2.354h3.933V18.5zm2.069-6.44c0-1.319.245-2.476.736-3.473.506-.997 1.188-1.763 2.047-2.3.859-.537 1.817-.805 2.875-.805.905 0 1.694.184 2.369.552.69.368 1.219.851 1.587 1.449V5.666h3.933V18.5h-3.933v-1.817c-.383.598-.92 1.081-1.61 1.449-.675.368-1.464.552-2.37.552a5.274 5.274 0 01-2.851-.805c-.859-.552-1.541-1.326-2.047-2.323-.49-1.012-.736-2.177-.736-3.496zm9.614.023c0-.981-.276-1.756-.828-2.323a2.616 2.616 0 00-1.978-.851 2.69 2.69 0 00-2.001.851c-.537.552-.805 1.319-.805 2.3 0 .981.268 1.763.805 2.346a2.69 2.69 0 002 .851c.783 0 1.442-.284 1.979-.851.552-.567.828-1.342.828-2.323zm5.996-.023c0-1.319.246-2.476.736-3.473.506-.997 1.189-1.763 2.047-2.3.859-.537 1.817-.805 2.875-.805.844 0 1.61.176 2.3.529.706.353 1.258.828 1.656 1.426V1.48h3.933V18.5h-3.933v-1.84c-.368.613-.897 1.104-1.587 1.472-.674.368-1.464.552-2.369.552-1.058 0-2.016-.268-2.875-.805-.858-.552-1.54-1.326-2.047-2.323-.49-1.012-.736-2.177-.736-3.496zm9.614.023c0-.981-.276-1.756-.828-2.323a2.616 2.616 0 00-1.978-.851 2.69 2.69 0 00-2 .851c-.537.552-.806 1.319-.806 2.3 0 .981.269 1.763.805 2.346a2.69 2.69 0 002.001.851c.782 0 1.442-.284 1.978-.851.552-.567.828-1.342.828-2.323zm8.757-7.751c-.69 0-1.258-.2-1.702-.598a2.028 2.028 0 01-.644-1.518c0-.613.214-1.12.644-1.518.444-.414 1.012-.621 1.702-.621.674 0 1.226.207 1.656.621.444.399.667.905.667 1.518 0 .598-.223 1.104-.667 1.518-.43.399-.982.598-1.656.598zm1.955 1.334V18.5h-3.933V5.666h3.933zM68.03 7.552c0 .935-.215 1.794-.644 2.576-.43.767-1.089 1.388-1.978 1.863-.89.475-1.994.713-3.312.713h-2.438V18.5h-3.933V2.354h6.37c1.289 0 2.377.222 3.267.667.89.445 1.556 1.058 2 1.84.446.782.668 1.679.668 2.691zm-6.233 2.024c.751 0 1.31-.176 1.679-.529.368-.353.552-.851.552-1.495 0-.644-.184-1.142-.552-1.495-.368-.353-.928-.529-1.68-.529h-2.138v4.048h2.139zm7.498 2.484c0-1.319.246-2.476.736-3.473.506-.997 1.189-1.763 2.047-2.3.859-.537 1.817-.805 2.875-.805.905 0 1.695.184 2.37.552.69.368 1.218.851 1.586 1.449V5.666h3.933V18.5H78.91v-1.817c-.383.598-.92 1.081-1.61 1.449-.674.368-1.464.552-2.369.552a5.273 5.273 0 01-2.852-.805c-.858-.552-1.54-1.326-2.047-2.323-.49-1.012-.736-2.177-.736-3.496zm9.614.023c0-.981-.276-1.756-.828-2.323a2.616 2.616 0 00-1.978-.851 2.69 2.69 0 00-2 .851c-.537.552-.806 1.319-.806 2.3 0 .981.269 1.763.805 2.346a2.69 2.69 0 002.001.851c.782 0 1.442-.284 1.978-.851.552-.567.828-1.342.828-2.323zm19.889-6.417l-8.05 18.929h-4.232l2.944-6.532-5.221-12.397h4.393l2.967 8.027 2.944-8.027h4.255z" fill="#fff"/></svg>